# xmcd
#
# Track frame offsets:
#	150
#	34777
#	54246
#	90155
#	117456
#	142725
#	165639
#	183681
#	208130
#	235128
#	282959
#	303565
#
# Disc length: 4406 seconds
#
# Revision: 0
# Processed by: cddbd v1.5.2PL0 Copyright (c) Steve Scherf et al.
# Submitted via: EasyCDDAExtractor 2010.6.0.0
#
DISCID=a111340c
DTITLE=New Riders Of the Purple Sage - Where I come from
DYEAR=2010
DGENRE=
TTITLE0=Where I come from
TTITLE1=Big Six
TTITLE2=Barracuda moon
TTITLE3=Higher
TTITLE4=Down the middle
TTITLE5=Them Old Minglewood blues
TTITLE6=Something in the air tonight
TTITLE7=Olivia Rose
TTITLE8=Blues Barrel
TTITLE9=Ghost train blues
TTITLE10=Carl Perkins wear the crown
TTITLE11=Rockin´ with nona
EXTD=
EXTT0=
EXTT1=
EXTT2=
EXTT3=
EXTT4=
EXTT5=
EXTT6=
EXTT7=
EXTT8=
EXTT9=
EXTT10=
EXTT11=
PLAYORDER=
